<?xml version="1.0" standalone="no"?>
<!DOCTYPE svg PUBLIC "-//W3C//DTD SVG 20010904//EN"
 "http://www.w3.org/TR/2001/REC-SVG-20010904/DTD/svg10.dtd">
<svg version="1.0" xmlns="http://www.w3.org/2000/svg"
 width="1280.000000pt" height="640.000000pt" viewBox="0 0 1280.000000 640.000000"
 preserveAspectRatio="xMidYMid meet">
<metadata>
Created by potrace 1.15, written by Peter Selinger 2001-2017
</metadata>
<g transform="translate(0.000000,640.000000) scale(0.100000,-0.100000)"
fill="#000000" stroke="none">
<path d="M6280 5704 c-168 -11 -321 -28 -446 -49 -820 -139 -1473 -541 -1739
-1071 -25 -50 -45 -96 -45 -102 0 -9 -42 -12 -149 -12 l-149 0 -56 -64 -56
-63 0 -534 0 -534 -107 -86 c-60 -47 -135 -104 -168 -126 -132 -89 -418 -213
-490 -213 -94 0 -989 -267 -1500 -448 -497 -175 -779 -321 -1050 -542 -152
-124 -325 -304 -325 -339 0 -8 273 -12 1041 -13 l1040 -3 22 -65 c33 -98 72
-157 161 -245 378 -375 1141 -295 1384 145 17 30 38 81 48 113 l18 57 447 0
448 0 31 -58 c154 -289 595 -530 1155 -630 l100 -18 5 -54 5 -55 530 0 530 0
5 55 5 54 95 17 c571 103 1026 357 1166 652 l18 37 343 -2 344 -3 22 -65 c30
-90 70 -154 141 -229 264 -278 770 -338 1131 -136 151 85 274 226 316 366 l21
69 1114 0 c770 0 1114 3 1114 10 0 6 -15 34 -34 63 -115 179 -421 417 -746
581 -319 161 -868 360 -1625 587 -265 80 -341 99 -392 99 -53 0 -79 7 -168 46
-165 72 -347 191 -497 324 l-48 42 0 535 0 534 -32 32 c-18 18 -48 49 -66 70
l-32 37 -169 0 -168 0 -46 96 c-144 297 -415 564 -772 762 -337 185 -789 318
-1230 361 -115 12 -414 20 -495 15z"/>
</g>
</svg>
