<?xml version="1.0" encoding="utf-8" ?>
<svg xmlns="http://www.w3.org/2000/svg" xmlns:xlink="http://www.w3.org/1999/xlink" width="1033" height="1033">
	<path fill="white" transform="scale(2.01852 2.01852)" d="M234.23 174.94C273.553 127.731 337.031 84.705 395.604 67.9779C404.419 65.4604 413.414 62.8754 422.545 61.8467C438.241 59.7766 451.87 74.4513 450.063 89.8028C449.573 93.9638 448.443 98.0998 447.377 102.145C430.405 166.579 386.396 234.476 333.541 276.061C339.9 305.133 333.664 339.962 319.125 365.455C311.097 379.532 287.644 406.713 274.728 417.057C266.062 423.997 265.951 409.204 265.569 404.862C263.496 381.303 258.939 357.991 254.205 334.845L239.427 350.201C236.943 352.745 231.77 360.426 227.611 357.795C222.949 354.846 218.821 347.701 213.806 344.808L213.481 344.623C198.859 353.282 202.198 367.957 187.079 353.897C183.616 358.018 180.068 362.891 177.453 367.588C177.388 371.182 177.839 374.766 177.711 378.373C176.877 401.858 157.335 427.041 133.622 430.197C131.036 429.233 129.224 427.656 129.13 424.634C128.976 419.72 135.042 418.857 138.548 417.591C157.203 410.855 167.55 392.325 167.367 373.008C161.236 374.143 155.158 375.823 149.073 377.2C144.673 378.086 129.153 382.571 125.831 381.542C118.971 379.418 124.001 369.316 125.326 365.093L132.829 341.851C114.383 339.102 94.7616 347.019 86.3678 364.415C84.9319 367.391 83.4183 373.733 81.0683 375.749C76.9004 379.325 72.1411 374.447 72.9925 369.897C78.4259 340.858 110.811 326.521 138.342 332.198L152.67 319.531C150.024 316.891 144.038 312.898 146.912 308.465C149.347 304.707 159.261 296.323 162.955 292.684C160.503 290.251 158.002 287.862 155.581 285.398C148.043 277.722 155.529 274.545 161.222 268.972C166.621 263.686 171.896 258.313 177.453 253.187L171.656 252.381C165.833 251.526 160.048 250.341 154.248 249.338L125.706 244.477C119.703 243.431 93.6959 242.596 95.3914 234.216C96.3361 229.547 119.558 208.912 124.526 204.887C156.139 179.269 194.063 166.445 234.23 174.94ZM424.632 72.3429C401.579 74.8326 363.323 90.2525 343.833 100.932C357.72 114.097 371.039 127.866 384.751 141.212C392.933 149.813 402.174 157.684 409.921 166.65C419.218 148.335 437.171 109.792 439.257 88.9013C440.127 80.187 433.806 72.1892 424.632 72.3429ZM334.299 106.197C273.953 140.216 227.415 192.46 192.868 251.795L232.375 291.515C240.908 300.071 249.715 308.464 257.92 317.331L261.445 315.185C316.903 278.896 372.279 235.596 404.619 176.296L347.177 118.977C345.07 116.881 335.939 106.922 334.299 106.197ZM206.135 182.525C172.7 185.535 134.201 204.751 112.265 230.861L111.822 231.39C121.053 233.541 130.721 234.327 140.061 236.076L166.302 240.409C172.701 241.514 179.19 242.968 185.641 243.626C191.899 228.192 216.324 195.71 226.861 183.864C220.044 183.006 213.019 181.96 206.135 182.525ZM185.641 259.927C178.842 266.568 172.209 273.416 165.243 279.878C169.495 284.359 173.957 288.627 178.299 293.02L209.416 324.295C216.139 330.991 223.04 337.663 229.482 344.623C236.253 337.786 242.938 330.843 249.937 324.238C242.933 317.409 190.549 262.452 185.641 259.927ZM324.45 283.436C320.979 285.563 317.99 288.356 314.821 290.893C298.583 303.895 280.976 315.399 263.362 326.409C268.498 347.651 272.164 369.267 274.904 390.94C275.318 394.168 275.615 397.471 276.183 400.673C306.425 369.362 326.114 346.391 325.23 298.352C325.198 296.609 324.798 283.935 324.45 283.436ZM170.428 300.421C166.904 303.936 162.715 307.33 159.767 311.331C162.229 314.77 165.618 317.746 168.598 320.748L191.082 343.317C192.313 344.55 193.543 345.984 194.897 347.072C198.558 343.371 202.148 339.492 206.135 336.139C195.665 325.914 181.352 309.055 170.428 300.421ZM159.767 327.43C155.386 331.628 148.29 336.843 144.696 341.136C142.874 343.314 136.189 365.533 135.077 369.668C140.614 368.671 146 366.995 151.501 365.839C157.091 364.488 162.84 363.381 168.367 361.822C171.755 356.955 175.05 351.172 179.335 347.072C176.966 344.203 162.093 328.758 159.767 327.43Z"/>
	<path fill="white" transform="scale(2.01852 2.01852)" d="M322.128 224.707C312.367 225.377 303.067 221.165 296.101 214.458C273.527 192.723 288.496 153.592 321.355 153.013C342.3 151.433 358.357 171.01 357.576 190.96C356.842 209.708 341.132 225.471 322.128 224.707ZM320.133 163.35C285.978 166.219 289.837 216.067 323.312 214.391C356.893 211.738 353.977 162.479 320.133 163.35Z"/>
	<path fill="white" transform="scale(2.01852 2.01852)" d="M108.668 428.396C98.3233 433.568 76.8546 445.181 66.2373 448.422C62.1039 449.684 58.3504 446.277 59.9621 441.964C60.9151 439.413 62.2563 436.959 63.3138 434.438L80.7926 393.401C82.4482 389.55 82.9706 384.969 87.6346 384.07C98.759 384.556 90.4338 397.475 88.2336 402.694L75.4465 432.496C81.7767 430.046 112.358 413.405 116.725 414.302C119.281 414.827 121.411 418.056 120.574 420.601C119.327 424.398 112.068 426.789 108.668 428.396Z"/>
</svg>
